<svg width="64" height="64" viewBox="0 0 64 64" fill="none" xmlns="http://www.w3.org/2000/svg">
<path d="M39.8 40.59C46.7533 40.59 52.39 34.9533 52.39 28C52.39 21.0468 46.7533 15.41 39.8 15.41C32.8467 15.41 27.21 21.0468 27.21 28C27.21 34.9533 32.8467 40.59 39.8 40.59Z" fill="#E8C916"/>
<path d="M39.8 8V12.44" stroke="#E8C916" stroke-width="3" stroke-miterlimit="10" stroke-linecap="round"/>
<path d="M39.8 43.5601V48.0001" stroke="#E8C916" stroke-width="3" stroke-miterlimit="10" stroke-linecap="round"/>
<path d="M19.8 28H24.25" stroke="#E8C916" stroke-width="3" stroke-miterlimit="10" stroke-linecap="round"/>
<path d="M55.36 28H59.8" stroke="#E8C916" stroke-width="3" stroke-miterlimit="10" stroke-linecap="round"/>
<path d="M25.66 13.86L28.8 17" stroke="#E8C916" stroke-width="3" stroke-miterlimit="10" stroke-linecap="round"/>
<path d="M50.8 39L53.94 42.14" stroke="#E8C916" stroke-width="3" stroke-miterlimit="10" stroke-linecap="round"/>
<path d="M25.66 42.14L28.8 39" stroke="#E8C916" stroke-width="3" stroke-miterlimit="10" stroke-linecap="round"/>
<path d="M50.8 17L53.94 13.86" stroke="#E8C916" stroke-width="3" stroke-miterlimit="10" stroke-linecap="round"/>
<path d="M23.5 21.8999C26.6876 21.8935 29.8164 22.7583 32.5482 24.4009C35.28 26.0435 37.511 28.4015 39 31.2199C40.8242 30.1534 42.8697 29.5216 44.9776 29.3737C47.0855 29.2258 49.1992 29.5657 51.1544 30.367C53.1097 31.1683 54.854 32.4096 56.2518 33.9943C57.6496 35.579 58.6634 37.4645 59.2144 39.5045C59.7654 41.5445 59.8388 43.6841 59.429 45.7571C59.0191 47.8301 58.1369 49.7807 56.851 51.4575C55.5651 53.1343 53.91 54.4921 52.0142 55.4256C50.1185 56.3591 48.0331 56.843 45.92 56.8399L23.5 56.8999C18.8587 56.8999 14.4075 55.0562 11.1256 51.7743C7.84374 48.4924 6 44.0412 6 39.3999C6 34.7587 7.84374 30.3075 11.1256 27.0256C14.4075 23.7437 18.8587 21.8999 23.5 21.8999Z" fill="url(#paint0_linear_12_4510)"/>
<path d="M59.1319 46.7876C61.1754 39.4738 56.9029 31.8882 49.589 29.8448C42.2752 27.8013 34.6897 32.0738 32.6462 39.3877C30.6028 46.7015 34.8753 54.287 42.1891 56.3305C49.5029 58.3739 57.0885 54.1014 59.1319 46.7876Z" fill="url(#paint1_linear_12_4510)"/>
<defs>
<linearGradient id="paint0_linear_12_4510" x1="19.08" y1="58.3899" x2="40.17" y2="31.0799" gradientUnits="userSpaceOnUse">
<stop stop-color="#C2C3D5"/>
<stop offset="1" stop-color="#AAABC4"/>
</linearGradient>
<linearGradient id="paint1_linear_12_4510" x1="51.502" y1="38.1976" x2="35.5708" y2="52.0725" gradientUnits="userSpaceOnUse">
<stop offset="0.02" stop-color="white"/>
<stop offset="1" stop-color="white" stop-opacity="0"/>
</linearGradient>
</defs>
</svg>
